<svg width="8" height="15" viewBox="0 0 8 15" fill="none" xmlns="http://www.w3.org/2000/svg">
    <path
        d="M0.0226172 13.2804C0.0884893 13.5631 0.305318 13.8211 0.58253 13.9501C0.722508 14.0132 0.782891 14.0269 0.980508 14.0242C1.41966 14.0242 1.12323 14.2877 4.66386 10.7525C6.79921 8.61993 7.83395 7.56872 7.88061 7.48364C7.98765 7.28328 8.02608 7.04998 7.98216 6.84139C7.96295 6.74807 7.91629 6.61358 7.88061 6.54496C7.83395 6.45988 6.79921 5.40867 4.66386 3.27606C1.12323 -0.259079 1.41966 0.00440923 0.980508 0.00440923C0.782891 0.00440923 0.722508 0.0153879 0.577041 0.08126C0.0720213 0.311812 -0.142063 0.926619 0.107702 1.42889C0.143383 1.50026 1.11774 2.49383 2.89629 4.27512L5.63273 7.0143L2.89629 9.75348C1.10951 11.543 0.143383 12.5283 0.107702 12.5997C0.00614916 12.8083 -0.0267869 13.0663 0.0226172 13.2804Z"
        fill="#0DBACC" />
</svg>