<?xml version="1.0" standalone="no"?>
<!DOCTYPE svg PUBLIC "-//W3C//DTD SVG 20010904//EN"
 "http://www.w3.org/TR/2001/REC-SVG-20010904/DTD/svg10.dtd">
<svg version="1.0" xmlns="http://www.w3.org/2000/svg"
 width="512.000000pt" height="512.000000pt" viewBox="0 0 512.000000 512.000000"
 preserveAspectRatio="xMidYMid meet">

<g transform="translate(0.000000,512.000000) scale(0.100000,-0.100000)"
fill="#000000" stroke="none">
<path d="M2375 5074 c-16 -2 -73 -9 -125 -15 -351 -40 -764 -190 -1060 -386
-629 -416 -1017 -1034 -1131 -1798 -20 -130 -17 -519 4 -658 44 -283 115 -515
236 -762 249 -508 644 -904 1156 -1155 246 -121 478 -193 762 -237 155 -24
527 -24 688 0 291 44 532 120 786 248 399 202 733 501 982 879 146 222 284
547 342 804 47 212 58 316 59 556 1 316 -31 521 -126 809 -206 621 -663 1150
-1253 1448 -257 130 -501 207 -785 248 -108 16 -467 29 -535 19z m395 -245
c636 -58 1227 -389 1614 -904 288 -382 456 -885 456 -1365 0 -399 -117 -823
-321 -1162 -289 -481 -732 -835 -1260 -1006 -462 -151 -952 -148 -1419 8 -520
173 -956 524 -1238 995 -207 348 -322 763 -322 1165 0 402 115 817 322 1165
233 390 588 711 996 902 208 96 516 181 737 202 131 12 304 12 435 0z"/>
<path d="M2038 4051 l-33 -29 -5 -159 -5 -158 -440 -5 c-474 -5 -472 -5 -500
-60 -21 -41 -19 -82 8 -121 29 -44 71 -58 174 -58 l83 -1 2 -992 3 -993 30
-73 c65 -159 195 -283 353 -335 l81 -27 770 0 770 0 80 25 c156 50 291 177
356 337 l30 73 3 993 2 992 83 1 c103 0 145 14 174 58 27 39 29 80 8 121 -28
55 -26 55 -500 60 l-440 5 -5 158 -5 159 -33 29 -32 29 -490 0 -490 0 -32 -29z
m842 -281 l0 -70 -320 0 -320 0 0 70 0 70 320 0 320 0 0 -70z m680 -1270 c0
-948 0 -960 -21 -1015 -29 -77 -106 -155 -182 -183 -57 -22 -64 -22 -797 -22
-725 0 -740 0 -795 21 -77 29 -155 106 -183 182 -22 58 -22 58 -22 1017 l0
960 1000 0 1000 0 0 -960z"/>
<path d="M2513 3145 c-18 -8 -42 -29 -53 -47 -20 -32 -20 -45 -18 -761 l3
-729 32 -29 c58 -51 108 -51 166 0 l32 29 3 729 c2 716 2 729 -18 761 -19 31
-72 63 -102 62 -7 -1 -28 -7 -45 -15z"/>
<path d="M2013 2975 c-64 -28 -63 -16 -63 -625 0 -607 -1 -593 62 -626 38 -20
101 -14 130 13 47 42 48 49 48 613 0 586 0 582 -62 620 -38 23 -70 25 -115 5z"/>
<path d="M2992 2970 c-62 -38 -62 -34 -62 -620 0 -564 1 -571 48 -613 29 -27
92 -33 130 -13 63 33 62 19 62 626 0 612 1 598 -65 626 -47 19 -74 18 -113 -6z"/>
</g>
</svg>
