<?xml version="1.0" standalone="no"?>
<!DOCTYPE svg PUBLIC "-//W3C//DTD SVG 20010904//EN"
 "http://www.w3.org/TR/2001/REC-SVG-20010904/DTD/svg10.dtd">
<svg version="1.0" xmlns="http://www.w3.org/2000/svg"
 width="512.000000pt" height="512.000000pt" viewBox="0 0 512.000000 512.000000"
 preserveAspectRatio="xMidYMid meet">

<g transform="translate(0.000000,512.000000) scale(0.100000,-0.100000)"
fill="#000000" stroke="none">
<path d="M2305 4679 c-874 -110 -1593 -741 -1810 -1588 -44 -171 -57 -270 -62
-467 -6 -213 4 -336 43 -514 92 -420 302 -795 610 -1090 334 -319 750 -516
1214 -575 163 -21 463 -16 605 10 287 52 529 142 755 279 564 345 932 912
1015 1566 21 163 16 463 -10 605 -66 361 -190 652 -399 934 -341 458 -858 759
-1436 837 -115 15 -412 17 -525 3z m475 -214 c889 -106 1579 -796 1685 -1685
76 -637 -178 -1276 -670 -1688 -267 -224 -570 -363 -935 -429 -133 -24 -467
-24 -600 0 -210 38 -351 83 -529 168 -400 191 -709 501 -901 901 -84 176 -129
318 -167 528 -24 133 -24 467 0 600 39 211 83 352 168 529 190 398 500 708
900 900 334 160 686 219 1049 176z"/>
<path d="M2987 4150 c-20 -5 -56 -19 -80 -31 -28 -14 -293 -272 -820 -798
-428 -427 -793 -796 -812 -821 -18 -25 -40 -67 -49 -95 -21 -67 -59 -418 -52
-479 17 -146 140 -263 286 -273 71 -5 414 30 470 49 19 6 51 21 70 34 19 12
396 384 836 826 895 897 839 832 839 978 -1 124 -16 147 -243 373 -144 143
-210 202 -244 217 -54 24 -147 33 -201 20z m289 -382 c95 -94 178 -184 185
-199 20 -50 3 -79 -127 -209 l-124 -125 -225 225 -225 225 128 128 c125 124
130 127 172 127 43 0 46 -2 216 -172z m-801 -1269 c-319 -319 -587 -584 -596
-589 -9 -5 -103 -19 -209 -31 -180 -20 -195 -20 -227 -5 -61 29 -65 57 -43
257 11 96 22 185 25 199 4 16 225 244 593 613 l587 587 225 -225 225 -225
-580 -581z"/>
<path d="M1868 1583 c-56 -35 -66 -117 -19 -164 l29 -29 895 0 c881 0 895 0
920 20 38 30 52 80 33 123 -29 71 23 67 -953 67 -800 -1 -880 -2 -905 -17z"/>
</g>
</svg>
