<?xml version="1.0" standalone="no"?>
<!DOCTYPE svg PUBLIC "-//W3C//DTD SVG 20010904//EN"
 "http://www.w3.org/TR/2001/REC-SVG-20010904/DTD/svg10.dtd">
<svg version="1.0" xmlns="http://www.w3.org/2000/svg"
 width="512.000000pt" height="512.000000pt" viewBox="0 0 512.000000 512.000000"
 preserveAspectRatio="xMidYMid meet">

<g transform="translate(0.000000,512.000000) scale(0.100000,-0.100000)"
fill="#000000" stroke="none">
<path d="M2374 4899 c-815 -62 -1552 -561 -1914 -1294 -250 -506 -312 -1058
-179 -1604 104 -425 320 -803 635 -1113 240 -235 477 -390 785 -511 699 -276
1507 -195 2133 213 375 245 682 601 861 999 141 312 207 623 207 971 0 650
-246 1232 -713 1686 -125 121 -213 191 -356 285 -426 277 -943 408 -1459 368z
m274 -928 c47 -24 77 -56 97 -103 13 -33 15 -143 15 -888 0 -745 -2 -855 -15
-888 -69 -163 -301 -163 -370 0 -13 33 -15 143 -15 890 0 808 1 855 19 893 46
101 172 146 269 96z m22 -2391 c163 -83 172 -318 16 -415 -44 -27 -58 -30
-126 -30 -68 0 -82 3 -126 30 -179 111 -135 383 71 436 43 11 122 1 165 -21z"/>
</g>
</svg>
